<svg width="14" height="14" viewBox="0 0 14 14" fill="none" xmlns="http://www.w3.org/2000/svg">
<path d="M4.79181 7.55153L4.46859 7.17004L4.46858 7.17005L4.79181 7.55153ZM4.82482 7.51992L4.46857 7.16907L4.46818 7.16947L4.82482 7.51992ZM3.43624 8.7001L3.11302 8.31862L3.11301 8.31862L3.43624 8.7001ZM3.36199 8.77828L3.77239 9.06388L3.77239 9.06388L3.36199 8.77828ZM10.5578 7.59951L10.2116 7.96021L10.5578 7.59951ZM9.40089 6.48885L9.05462 6.84954L9.05462 6.84954L9.40089 6.48885ZM8.97125 6.48583L8.63009 6.1203L8.62882 6.12149L8.97125 6.48583ZM6.82829 8.49989L7.16946 8.86542L7.17072 8.86423L6.82829 8.49989ZM6.39205 8.49036L6.03406 8.83943L6.03478 8.84016L6.39205 8.49036ZM6.38642 8.48459L6.02809 8.83331L6.02843 8.83366L6.38642 8.48459ZM6.35579 8.45486L6.68316 8.07693L6.68315 8.07692L6.35579 8.45486ZM5.31184 7.55063L5.6392 7.17269L5.6392 7.17269L5.31184 7.55063ZM5.2811 7.52076L5.63954 7.17217L5.6392 7.17182L5.2811 7.52076ZM5.27559 7.51512L5.6337 7.16618L5.63302 7.16548L5.27559 7.51512ZM4.83074 7.5139L4.47521 7.16233L4.4745 7.16305L4.83074 7.5139ZM9.69971 3.62488V3.12488C9.42356 3.12488 9.19971 3.34873 9.19971 3.62488H9.69971ZM9.9142 3.62488H10.4142C10.4142 3.34873 10.1903 3.12488 9.9142 3.12488V3.62488ZM9.9142 3.80652V4.30652C10.1903 4.30652 10.4142 4.08266 10.4142 3.80652H9.9142ZM9.69971 3.80652H9.19971C9.19971 4.08266 9.42356 4.30652 9.69971 4.30652V3.80652ZM0.5 3.25V10.75H1.5V3.25H0.5ZM3.25 13.5H10.75V12.5H3.25V13.5ZM13.5 10.75V3.25H12.5V10.75H13.5ZM10.75 0.5H3.25V1.5H10.75V0.5ZM13.5 3.25C13.5 1.73122 12.2688 0.5 10.75 0.5V1.5C11.7165 1.5 12.5 2.2835 12.5 3.25H13.5ZM10.75 13.5C12.2688 13.5 13.5 12.2688 13.5 10.75H12.5C12.5 11.7165 11.7165 12.5 10.75 12.5V13.5ZM0.5 10.75C0.5 12.2688 1.73122 13.5 3.25 13.5V12.5C2.2835 12.5 1.5 11.7165 1.5 10.75H0.5ZM1.5 3.25C1.5 2.2835 2.2835 1.5 3.25 1.5V0.5C1.73122 0.5 0.5 1.73122 0.5 3.25H1.5ZM5.11503 7.93301C5.14697 7.90594 5.17346 7.87849 5.18145 7.87036L4.46818 7.16947C4.46535 7.17236 4.46367 7.17406 4.46215 7.17559C4.46075 7.177 4.46017 7.17757 4.4601 7.17763C4.45985 7.17787 4.46302 7.17476 4.46859 7.17004L5.11503 7.93301ZM3.75947 9.08157L5.11503 7.933L4.46858 7.17005L3.11302 8.31862L3.75947 9.08157ZM3.77239 9.06388C3.76428 9.07554 3.75768 9.08263 3.75533 9.08505C3.75315 9.0873 3.75369 9.08647 3.75947 9.08157L3.11301 8.31862C3.07113 8.35411 3.0079 8.41175 2.95158 8.49268L3.77239 9.06388ZM3.75 9.13528C3.75 9.10967 3.75786 9.08476 3.77239 9.06388L2.95158 8.49268C2.82079 8.68063 2.75 8.90475 2.75 9.13528H3.75ZM3.75 10.4375V9.13528H2.75V10.4375H3.75ZM3.5625 10.25C3.66605 10.25 3.75 10.3339 3.75 10.4375H2.75C2.75 10.8862 3.11377 11.25 3.5625 11.25V10.25ZM10.4375 10.25H3.5625V11.25H10.4375V10.25ZM10.25 10.4375C10.25 10.3339 10.3339 10.25 10.4375 10.25V11.25C10.8862 11.25 11.25 10.8862 11.25 10.4375H10.25ZM10.25 8.05038V10.4375H11.25V8.05038H10.25ZM10.2116 7.96021C10.2361 7.98378 10.25 8.01634 10.25 8.05038H11.25C11.25 7.74405 11.1251 7.45096 10.9041 7.23882L10.2116 7.96021ZM9.05462 6.84954L10.2116 7.96021L10.9041 7.23882L9.74716 6.12816L9.05462 6.84954ZM9.31241 6.85136C9.23962 6.91929 9.12644 6.91849 9.05462 6.84954L9.74716 6.12816C9.43594 5.82939 8.94548 5.82594 8.63009 6.1203L9.31241 6.85136ZM7.17072 8.86423L9.31368 6.85017L8.62882 6.12149L6.48587 8.13555L7.17072 8.86423ZM6.03478 8.84016C6.34055 9.15246 6.84435 9.16885 7.16945 8.86542L6.48713 8.13436C6.56232 8.06419 6.67843 8.06816 6.74931 8.14056L6.03478 8.84016ZM6.02843 8.83366L6.03406 8.83943L6.75003 8.14129L6.7444 8.13552L6.02843 8.83366ZM6.02843 8.83279C6.02328 8.82833 6.02034 8.82541 6.02058 8.82564C6.02064 8.82571 6.02118 8.82624 6.02249 8.82757C6.0239 8.829 6.02546 8.8306 6.02809 8.83331L6.74474 8.13587C6.73733 8.12826 6.7127 8.10252 6.68316 8.07693L6.02843 8.83279ZM4.98449 7.92857L6.02844 8.8328L6.68315 8.07692L5.6392 7.17269L4.98449 7.92857ZM4.92265 7.86936C4.93011 7.87703 4.95482 7.90287 4.98449 7.92857L5.6392 7.17269C5.64436 7.17716 5.64731 7.1801 5.64708 7.17986C5.64701 7.1798 5.64648 7.17927 5.64516 7.17794C5.64375 7.1765 5.64218 7.17489 5.63954 7.17217L4.92265 7.86936ZM4.91749 7.86406L4.92299 7.86971L5.6392 7.17182L5.6337 7.16618L4.91749 7.86406ZM5.18628 7.86546C5.1121 7.94047 4.99203 7.94026 4.91816 7.86475L5.63302 7.16548C5.31589 6.84128 4.79369 6.84026 4.47521 7.16233L5.18628 7.86546ZM5.18106 7.87076L5.18699 7.86474L4.4745 7.16305L4.46857 7.16907L5.18106 7.87076ZM9.69971 4.12488H9.9142V3.12488H9.69971V4.12488ZM9.4142 3.62488V3.80652H10.4142V3.62488H9.4142ZM9.9142 3.30652H9.69971V4.30652H9.9142V3.30652ZM10.1997 3.80652V3.62488H9.19971V3.80652H10.1997Z" fill="#5A5C63"/>
</svg>
