<svg width="117" height="30" viewBox="0 0 117 30" fill="none" xmlns="http://www.w3.org/2000/svg">
<path d="M33.582 17.475C32.934 17.637 32.016 17.457 31.728 16.521C31.494 15.747 31.854 15.009 32.628 14.739C34.968 13.893 36.408 12.741 36.408 9.735V8.637C36.408 8.133 36.984 7.557 37.848 7.557C38.694 7.557 39.432 7.917 39.432 8.637V10.041C39.432 14.127 36.534 16.557 33.582 17.475ZM41.322 13.191L43.986 14.865C44.49 15.189 44.832 16.053 44.274 16.863C43.77 17.601 42.888 17.601 42.222 17.187L39.576 15.567C39.054 15.243 38.874 14.289 39.36 13.605C39.846 12.921 40.818 12.867 41.322 13.191ZM31.746 21.453C31.062 21.345 30.378 20.841 30.468 19.833C30.558 18.825 31.44 18.501 32.088 18.591C34.878 18.861 41.34 18.915 44.094 18.591C44.814 18.501 45.66 18.825 45.732 19.887C45.804 20.895 45.084 21.345 44.454 21.453C42.312 21.723 34.23 21.795 31.746 21.453ZM50.995 14.361C51.013 14.613 51.121 14.721 51.337 14.775C52.039 14.901 53.209 14.973 54.559 14.973C56.017 14.973 57.673 14.775 58.807 14.433C59.347 14.235 60.355 14.451 60.625 15.297C60.877 16.035 60.409 16.665 59.923 16.881C58.861 17.313 57.259 17.511 55.819 17.601V18.987C57.583 18.969 59.221 18.897 60.301 18.771C61.021 18.681 61.903 19.059 61.939 19.977C61.975 20.913 61.291 21.345 60.661 21.453C58.519 21.723 50.437 21.795 47.953 21.453C47.269 21.345 46.549 20.805 46.675 19.923C46.801 19.059 47.647 18.681 48.295 18.771C49.375 18.879 51.031 18.951 52.795 18.987V17.601C51.553 17.529 50.311 17.367 49.591 17.097C49.033 16.881 48.367 16.377 48.187 15.657C48.025 14.955 48.043 13.209 48.187 12.453C48.313 11.787 49.033 11.229 49.537 11.229H59.095C59.689 11.229 60.247 11.841 60.247 12.525C60.247 13.083 59.833 13.821 59.095 13.821H51.337C51.085 13.821 50.995 14.001 50.995 14.181V14.361ZM58.951 10.473H49.429C48.853 10.473 48.241 9.897 48.241 9.195C48.241 8.475 48.817 7.845 49.429 7.845H58.951C59.473 7.845 60.175 8.349 60.175 9.177C60.175 9.915 59.581 10.473 58.951 10.473ZM63.7461 18.969C63.5121 18.015 63.6201 14.721 63.7821 13.965C63.9081 13.371 64.3221 12.867 64.8081 12.867H69.2721C69.2721 12.435 69.2901 11.949 69.2541 11.229C69.2541 11.085 69.2361 10.851 68.8221 10.851H64.9881C64.3041 10.851 63.9441 10.041 63.9441 9.429C63.9441 8.817 64.3761 8.025 64.9881 8.025H70.6401C71.1621 8.025 71.9361 8.439 72.0801 9.285C72.2061 10.203 72.2061 13.245 72.0081 14.361C71.9001 14.901 71.4861 15.693 70.6941 15.693H66.5361C66.5541 16.143 66.5361 16.809 66.5541 17.475C66.5721 17.781 66.7521 17.979 67.1661 18.051C67.6161 18.141 67.9761 18.177 68.5701 18.177C69.6501 18.177 70.5321 17.943 70.8921 17.763C71.4501 17.511 72.6921 17.691 72.9081 18.735C73.0701 19.491 72.4401 20.229 72.0441 20.391C71.1441 20.841 69.7041 21.057 68.4981 21.057C67.0041 21.057 65.7981 20.751 65.1141 20.463C64.6281 20.229 63.9441 19.761 63.7461 18.969ZM76.7961 8.133C77.1381 10.599 76.9941 19.113 76.7961 21.111C76.6881 21.831 75.9321 22.425 75.1581 22.353C74.2761 22.263 73.7541 21.561 73.7901 20.841C74.0241 18.105 74.0601 11.229 73.7901 8.457C73.6821 7.701 74.3841 6.981 75.1041 6.909C75.9321 6.819 76.6881 7.377 76.7961 8.133ZM84.1358 15.477C82.7318 15.495 80.6078 15.243 79.4558 14.667C78.9878 14.451 78.4118 13.911 78.7538 12.957C79.0418 12.147 79.8518 12.057 80.4098 12.237C80.4818 12.255 80.5538 12.291 80.6078 12.309C80.5718 11.481 80.5718 10.653 80.6258 9.771H80.0138C79.5098 9.771 79.0058 9.087 79.0058 8.475C79.0058 7.863 79.4198 7.125 80.0138 7.125H88.2218C88.7798 7.125 89.2658 7.737 89.2658 8.457C89.2658 9.069 88.8698 9.771 88.2218 9.771H83.3978C83.3258 10.797 83.3078 11.769 83.3978 12.813C83.6318 12.831 83.8658 12.831 84.1358 12.831C84.4058 12.831 84.6398 12.831 84.8738 12.813C84.8738 12.399 84.8378 11.985 84.8198 11.535C84.7838 10.941 85.1258 10.311 85.9538 10.185C86.7818 10.059 87.4658 10.437 87.5918 11.139C87.6458 11.481 87.6818 11.877 87.6818 12.309C87.7538 12.291 87.8078 12.273 87.8618 12.255C88.4018 12.021 89.2478 12.291 89.4998 12.957C89.8058 13.767 89.2838 14.451 88.7978 14.667C87.3938 15.279 85.8278 15.477 84.1358 15.477ZM93.2618 8.151C93.4958 10.221 93.4598 12.417 93.2618 14.469C93.1898 15.225 92.5058 15.855 91.6238 15.747C90.7238 15.639 90.2198 14.955 90.2558 14.235C90.4358 12.057 90.4178 10.653 90.2558 8.403C90.2198 7.701 90.6878 7.017 91.5698 6.909C92.4518 6.801 93.1538 7.377 93.2618 8.151ZM81.7778 16.251H91.8218C92.3258 16.251 93.0638 16.629 93.2078 17.727C93.3518 18.879 93.3158 20.859 93.1178 21.957C93.0098 22.551 92.3798 23.235 91.3898 23.055C90.3998 22.875 90.1118 22.029 90.2198 21.489C90.2918 20.949 90.3458 20.373 90.3458 19.599C90.3458 19.131 90.0938 19.077 89.6618 19.077H81.8138C81.1298 19.077 80.7158 18.429 80.7158 17.691C80.7158 16.953 81.0938 16.251 81.7778 16.251ZM98.3047 17.475C97.6567 17.637 96.7387 17.457 96.4507 16.521C96.2167 15.747 96.5767 15.009 97.3507 14.739C99.6907 13.893 101.131 12.741 101.131 9.735V8.637C101.131 8.133 101.707 7.557 102.571 7.557C103.417 7.557 104.155 7.917 104.155 8.637V10.041C104.155 14.127 101.257 16.557 98.3047 17.475ZM106.045 13.191L108.709 14.865C109.213 15.189 109.555 16.053 108.997 16.863C108.493 17.601 107.611 17.601 106.945 17.187L104.299 15.567C103.777 15.243 103.597 14.289 104.083 13.605C104.569 12.921 105.541 12.867 106.045 13.191ZM96.4687 21.453C95.7847 21.345 95.1007 20.841 95.1907 19.833C95.2807 18.825 96.1627 18.501 96.8107 18.591C99.6007 18.861 106.063 18.915 108.817 18.591C109.537 18.501 110.383 18.825 110.455 19.887C110.527 20.895 109.807 21.345 109.177 21.453C107.035 21.723 98.9527 21.795 96.4687 21.453Z" fill="#FF7134"/>
<path d="M7.3065 20.0758C7.1305 18.4918 7.0825 16.9558 7.1625 15.4678C7.1945 14.8278 7.2585 14.1718 7.3545 13.4998C7.4665 12.8118 7.6185 12.1398 7.8105 11.4838C8.0025 10.8118 8.2425 10.1718 8.5305 9.56382C8.8345 8.93982 9.2025 8.37982 9.6345 7.88382C10.1945 7.24382 10.8985 6.73982 11.7465 6.37182C12.5945 6.00382 13.4825 5.77182 14.4105 5.67582C15.3545 5.57982 16.2985 5.61982 17.2425 5.79582C18.2025 5.95582 19.0665 6.25182 19.8345 6.68382C20.2185 6.92382 20.5785 7.21182 20.9145 7.54782C21.2025 7.83582 21.4825 8.19582 21.7545 8.62782C22.0425 9.05982 22.2665 9.56382 22.4265 10.1398C22.5545 10.6518 22.6185 11.2358 22.6185 11.8918C22.6345 12.5478 22.5785 13.2038 22.4505 13.8598C22.3225 14.4998 22.1225 15.1078 21.8505 15.6838C21.5785 16.2438 21.2345 16.6998 20.8185 17.0518C20.4345 17.3718 20.0425 17.6278 19.6425 17.8198C19.2425 18.0118 18.8425 18.1558 18.4425 18.2518C18.0585 18.3478 17.6825 18.4038 17.3145 18.4198C16.9625 18.4358 16.6265 18.4278 16.3065 18.3958C15.5545 18.3318 14.8345 18.1398 14.1465 17.8198C14.3705 19.0358 14.4265 20.1158 14.3145 21.0598C14.2665 21.4598 14.1785 21.8518 14.0505 22.2358C13.9225 22.6198 13.7385 22.9638 13.4985 23.2678C13.2585 23.5718 12.9465 23.8118 12.5625 23.9878C12.1945 24.1798 11.7385 24.2758 11.1945 24.2758C10.7625 24.2758 10.3785 24.2118 10.0425 24.0838C9.7065 23.9718 9.4025 23.8198 9.1305 23.6278C8.8745 23.4358 8.6505 23.2118 8.4585 22.9558C8.2665 22.7158 8.0985 22.4598 7.9545 22.1878C7.6345 21.5638 7.4185 20.8598 7.3065 20.0758ZM15.2745 11.6758C15.0025 11.6758 14.7625 11.7798 14.5545 11.9878C14.3625 12.1958 14.2825 12.4278 14.3145 12.6838C14.3465 13.0198 14.4425 13.2518 14.6025 13.3798C14.7785 13.5078 15.0025 13.5718 15.2745 13.5718C15.5465 13.5718 15.7705 13.4918 15.9465 13.3318C16.1225 13.1718 16.2105 12.9558 16.2105 12.6838C16.2105 12.4278 16.1305 12.1958 15.9705 11.9878C15.8105 11.7798 15.5785 11.6758 15.2745 11.6758Z" fill="#FF7134"/>
</svg>
