<svg width="14" height="18" viewBox="0 0 14 18" fill="none" xmlns="http://www.w3.org/2000/svg">
<path d="M11.4234 8.57931C11.602 8.14829 12.0961 7.94361 12.5271 8.12214C12.9582 8.30068 13.1628 8.79482 12.9843 9.22584C12.4941 10.4092 11.664 11.4207 10.599 12.1323C9.76978 12.6864 8.82711 13.0393 7.84575 13.1684V15.758H9.53522C10.0018 15.758 10.38 16.1362 10.38 16.6027C10.38 17.0693 10.0018 17.4475 9.53522 17.4475H4.46681C4.00027 17.4475 3.62207 17.0693 3.62207 16.6027C3.62207 16.1362 4.00027 15.758 4.46681 15.758H6.15628V13.1685C5.17489 13.0394 4.23219 12.6864 3.40293 12.1323C2.33791 11.4207 1.50782 10.4092 1.01765 9.22584C0.839113 8.79482 1.04379 8.30068 1.47482 8.12214C1.90584 7.94361 2.39998 8.14829 2.57852 8.57931C2.94082 9.45399 3.55436 10.2016 4.34155 10.7276C5.12874 11.2536 6.05423 11.5343 7.00098 11.5343C7.94772 11.5343 8.87321 11.2536 9.6604 10.7276C10.4476 10.2016 11.0611 9.45399 11.4234 8.57931Z" fill="#FFF6EE"/>
<path d="M7.00102 0.552734C5.13488 0.552734 3.62207 2.06554 3.62207 3.93168V6.74746C3.62207 8.6136 5.13488 10.1264 7.00102 10.1264C8.86716 10.1264 10.38 8.6136 10.38 6.74746V3.93168C10.38 2.06554 8.86716 0.552734 7.00102 0.552734Z" fill="#FFF6EE"/>
</svg>
