<svg width="40" height="40" viewBox="0 0 40 40" fill="none" xmlns="http://www.w3.org/2000/svg">
<path d="M18.1211 11.3842L17.1483 11.1526L17.1483 11.1526L18.1211 11.3842ZM21.8754 11.3842L20.9026 11.6158V11.6158L21.8754 11.3842ZM22.2756 13.0649L21.3028 13.2965L21.4026 13.7156L21.7756 13.931L22.2756 13.0649ZM24.8655 14.5602L24.3655 15.4262L24.7386 15.6416L25.1514 15.5185L24.8655 14.5602ZM26.5213 14.0664L26.2355 13.1081L26.2355 13.1081L26.5213 14.0664ZM27.0972 14.2955L26.2312 14.7955L26.2312 14.7955L27.0972 14.2955ZM28.488 16.7044L29.354 16.2044V16.2044L28.488 16.7044ZM28.3985 17.3178L27.7115 16.5911V16.5911L28.3985 17.3178ZM27.1428 18.5049L26.4558 17.7782L26.1428 18.0742V18.5049H27.1428ZM27.1428 21.4953H26.1428V21.9261L26.4558 22.222L27.1428 21.4953ZM28.3982 22.6822L27.7112 23.4089V23.4089L28.3982 22.6822ZM28.4877 23.2955L27.6217 22.7955L27.6217 22.7955L28.4877 23.2955ZM27.0969 25.7044L26.2309 25.2044L26.2309 25.2044L27.0969 25.7044ZM26.521 25.9336L26.8068 24.9753H26.8068L26.521 25.9336ZM24.8655 25.4398L25.1513 24.4815L24.7385 24.3584L24.3655 24.5738L24.8655 25.4398ZM22.2756 26.9351L21.7756 26.069L21.4026 26.2844L21.3028 26.7035L22.2756 26.9351ZM21.8754 28.6158L22.8482 28.8474L21.8754 28.6158ZM18.1211 28.6158L17.1483 28.8474L17.1483 28.8474L18.1211 28.6158ZM17.7209 26.9353L18.6937 26.7037L18.594 26.2846L18.2209 26.0693L17.7209 26.9353ZM15.131 25.44L15.631 24.574L15.258 24.3586L14.8452 24.4817L15.131 25.44ZM13.4757 25.9337L13.1898 24.9754H13.1898L13.4757 25.9337ZM12.8997 25.7046L12.0337 26.2046L12.8997 25.7046ZM11.509 23.2956L12.375 22.7956H12.375L11.509 23.2956ZM11.5985 22.6823L10.9115 21.9556H10.9115L11.5985 22.6823ZM12.8534 21.4959L13.5404 22.2226L13.8534 21.9267V21.4959H12.8534ZM12.8534 18.5048H13.8534V18.0741L13.5404 17.7781L12.8534 18.5048ZM11.5979 17.3179L10.9109 18.0445H10.9109L11.5979 17.3179ZM11.5084 16.7046L12.3744 17.2046H12.3744L11.5084 16.7046ZM12.8992 14.2956L12.0332 13.7956H12.0332L12.8992 14.2956ZM13.4751 14.0665L13.7609 13.1082H13.7609L13.4751 14.0665ZM15.1306 14.5603L14.8448 15.5185L15.2576 15.6417L15.6306 15.4263L15.1306 14.5603ZM17.7209 13.0647L18.2209 13.9307L18.594 13.7154L18.6937 13.2963L17.7209 13.0647ZM18.6075 10C17.9129 10 17.3091 10.4769 17.1483 11.1526L19.0939 11.6158C19.0402 11.841 18.839 12 18.6075 12V10ZM21.389 10H18.6075V12H21.389V10ZM22.8482 11.1526C22.6874 10.4769 22.0836 10 21.389 10V12C21.1575 12 20.9563 11.841 20.9026 11.6158L22.8482 11.1526ZM23.2484 12.8333L22.8482 11.1526L20.9026 11.6158L21.3028 13.2965L23.2484 12.8333ZM21.7756 13.931L24.3655 15.4262L25.3655 13.6942L22.7756 12.1989L21.7756 13.931ZM25.1514 15.5185L26.8071 15.0247L26.2355 13.1081L24.5797 13.6019L25.1514 15.5185ZM26.8071 15.0247C26.5853 15.0908 26.347 14.996 26.2312 14.7955L27.9633 13.7955C27.616 13.194 26.9011 12.9096 26.2355 13.1081L26.8071 15.0247ZM26.2312 14.7955L27.622 17.2044L29.354 16.2044L27.9633 13.7955L26.2312 14.7955ZM27.622 17.2044C27.5062 17.0039 27.5433 16.7502 27.7115 16.5911L29.0855 18.0444C29.5902 17.5673 29.7013 16.806 29.354 16.2044L27.622 17.2044ZM27.7115 16.5911L26.4558 17.7782L27.8298 19.2316L29.0855 18.0444L27.7115 16.5911ZM26.1428 18.5049V21.4953H28.1428V18.5049H26.1428ZM26.4558 22.222L27.7112 23.4089L29.0852 21.9555L27.8298 20.7687L26.4558 22.222ZM27.7112 23.4089C27.543 23.2498 27.5059 22.996 27.6217 22.7955L29.3537 23.7955C29.701 23.194 29.5899 22.4327 29.0852 21.9555L27.7112 23.4089ZM27.6217 22.7955L26.2309 25.2044L27.9629 26.2044L29.3537 23.7955L27.6217 22.7955ZM26.2309 25.2044C26.3467 25.0039 26.5849 24.9091 26.8068 24.9753L26.2352 26.8919C26.9008 27.0904 27.6157 26.806 27.9629 26.2044L26.2309 25.2044ZM26.8068 24.9753L25.1513 24.4815L24.5797 26.3981L26.2352 26.8919L26.8068 24.9753ZM24.3655 24.5738L21.7756 26.069L22.7756 27.8011L25.3655 26.3058L24.3655 24.5738ZM21.3028 26.7035L20.9026 28.3842L22.8482 28.8474L23.2484 27.1667L21.3028 26.7035ZM20.9026 28.3842C20.9563 28.159 21.1575 28 21.389 28V30C22.0836 30 22.6874 29.5231 22.8482 28.8474L20.9026 28.3842ZM21.389 28H18.6075V30H21.389V28ZM18.6075 28C18.839 28 19.0402 28.159 19.0939 28.3842L17.1483 28.8474C17.3091 29.5231 17.9129 30 18.6075 30V28ZM19.0939 28.3842L18.6937 26.7037L16.7481 27.1669L17.1483 28.8474L19.0939 28.3842ZM18.2209 26.0693L15.631 24.574L14.631 26.306L17.2209 27.8013L18.2209 26.0693ZM14.8452 24.4817L13.1898 24.9754L13.7615 26.892L15.4168 26.3983L14.8452 24.4817ZM13.1898 24.9754C13.4117 24.9092 13.65 25.004 13.7658 25.2046L12.0337 26.2046C12.381 26.8061 13.0959 27.0905 13.7615 26.892L13.1898 24.9754ZM13.7658 25.2046L12.375 22.7956L10.6429 23.7956L12.0337 26.2046L13.7658 25.2046ZM12.375 22.7956C12.4907 22.9962 12.4537 23.2499 12.2855 23.409L10.9115 21.9556C10.4067 22.4328 10.2956 23.1941 10.6429 23.7956L12.375 22.7956ZM12.2855 23.409L13.5404 22.2226L12.1664 20.7692L10.9115 21.9556L12.2855 23.409ZM13.8534 21.4959V18.5048H11.8534V21.4959H13.8534ZM13.5404 17.7781L12.2849 16.5912L10.9109 18.0445L12.1664 19.2315L13.5404 17.7781ZM12.2849 16.5912C12.4532 16.7503 12.4902 17.004 12.3744 17.2046L10.6424 16.2046C10.2951 16.8061 10.4062 17.5674 10.9109 18.0445L12.2849 16.5912ZM12.3744 17.2046L13.7652 14.7956L12.0332 13.7956L10.6424 16.2046L12.3744 17.2046ZM13.7652 14.7956C13.6495 14.9962 13.4112 15.091 13.1893 15.0248L13.7609 13.1082C13.0953 12.9097 12.3805 13.1941 12.0332 13.7956L13.7652 14.7956ZM13.1893 15.0248L14.8448 15.5185L15.4164 13.602L13.7609 13.1082L13.1893 15.0248ZM15.6306 15.4263L18.2209 13.9307L17.2209 12.1987L14.6306 13.6942L15.6306 15.4263ZM17.1483 11.1526L16.7481 12.8331L18.6937 13.2963L19.0939 11.6158L17.1483 11.1526Z" fill="white"/>
<circle cx="20" cy="20" r="3" stroke="white" stroke-width="2"/>
</svg>
