<svg width="40" height="40" viewBox="0 0 40 40" fill="none" xmlns="http://www.w3.org/2000/svg">
<rect width="40" height="40" rx="9.4165" fill="#FF7134"/>
<g clip-path="url(#clip0_713_758)">
<path d="M20.4052 14.9098C21.0553 14.9098 21.5823 14.3828 21.5823 13.7327C21.5823 13.0827 21.0553 12.5557 20.4052 12.5557C19.7552 12.5557 19.2282 13.0827 19.2282 13.7327C19.2282 14.3828 19.7552 14.9098 20.4052 14.9098Z" fill="white"/>
<path d="M14.9123 14.5174C14.9123 15.1675 14.3853 15.6945 13.7352 15.6945C13.0851 15.6945 12.5581 15.1675 12.5581 14.5174C12.5581 13.8674 13.0851 13.3404 13.7352 13.3404C14.3853 13.3404 14.9123 13.8674 14.9123 14.5174Z" fill="white"/>
<path fill-rule="evenodd" clip-rule="evenodd" d="M17.1945 19.4146L19.0686 16.3692C19.6815 15.3733 21.129 15.3733 21.7418 16.3692L23.6159 19.4146L25.4389 17.0447C26.3526 15.8569 28.2523 16.503 28.2523 18.0016V23.5415C28.2523 23.725 28.2208 23.9012 28.1629 24.0649C28.6961 24.4965 29.037 25.1563 29.037 25.8957C29.037 27.1959 27.983 28.2498 26.6829 28.2498H14.1276C12.8274 28.2498 11.7734 27.1959 11.7734 25.8957C11.7734 25.1563 12.1143 24.4965 12.6475 24.0649C12.5896 23.9012 12.5581 23.725 12.5581 23.5415V18.0016C12.5581 16.503 14.4578 15.8569 15.3715 17.0447L17.1945 19.4146ZM20.4052 17.1917L18.5311 20.2371C17.9552 21.173 16.6206 21.2425 15.9506 20.3715L14.1276 18.0016V23.5415H26.6829V18.0016L24.8599 20.3715C24.1899 21.2425 22.8553 21.173 22.2793 20.2371L20.4052 17.1917ZM13.3429 25.8957C13.3429 25.4623 13.6942 25.111 14.1276 25.111H26.6829C27.1163 25.111 27.4676 25.4623 27.4676 25.8957C27.4676 26.3291 27.1163 26.6804 26.6829 26.6804H14.1276C13.6942 26.6804 13.3429 26.3291 13.3429 25.8957Z" fill="white"/>
<path d="M28.2523 14.5174C28.2523 15.1675 27.7253 15.6945 27.0752 15.6945C26.4252 15.6945 25.8982 15.1675 25.8982 14.5174C25.8982 13.8674 26.4252 13.3404 27.0752 13.3404C27.7253 13.3404 28.2523 13.8674 28.2523 14.5174Z" fill="white"/>
</g>
<defs>
<clipPath id="clip0_713_758">
<rect width="18.833" height="18.833" fill="white" transform="translate(10.9883 10.9863)"/>
</clipPath>
</defs>
</svg>
