<svg width="11" height="13" viewBox="0 0 11 13" fill="none" xmlns="http://www.w3.org/2000/svg">
<path d="M4.83073 7.33333H1.0369C0.597314 7.33333 0.278059 6.91535 0.39372 6.49125L2.03008 0.491255C2.10919 0.201214 2.37263 0 2.67326 0H5.90578C6.36082 0 6.68213 0.445798 6.53823 0.877485L5.78989 3.12251C5.646 3.5542 5.96731 4 6.42235 4H9.75204C10.2476 4 10.57 4.52154 10.3483 4.96481L6.76035 12.1408C6.44574 12.77 5.4974 12.5461 5.4974 11.8426V8C5.4974 7.63181 5.19892 7.33333 4.83073 7.33333Z" fill="url(#paint0_linear_416_9913)"/>
<defs>
<linearGradient id="paint0_linear_416_9913" x1="5.4974" y1="0" x2="5.4974" y2="14.6667" gradientUnits="userSpaceOnUse">
<stop stop-color="#FFCB40"/>
<stop offset="1" stop-color="#F5B200"/>
</linearGradient>
</defs>
</svg>
